# xmcd CD database file
#
# Track frame offsets:
#	150
#	25340
#	58212
#	83775
#	108946
#	139747
#	165210
#	192232
#	220685
#	242025
#	267192
#
# Disc length: 3878 seconds
#
# Revision: 0
# Processed by: cddbd v1.5.2PL0 Copyright (c) Steve Scherf et al.
# Submitted via: CDex 1.77
#
DISCID=900f240b
DTITLE=Jonathan Lundberg - Iterations - Master ISRC
DYEAR=2017
DGENRE=Jazz
TTITLE0=Antikhytera
TTITLE1=Bermuda
TTITLE2=Freak
TTITLE3=Evolution
TTITLE4=Behind The Moon
TTITLE5=Titan
TTITLE6=One Small Step
TTITLE7=Muted
TTITLE8=Shinjuku Panda
TTITLE9=Prim
TTITLE10=Wedjat
EXTD=YEAR: 2017
EXTT0=
EXTT1=
EXTT2=
EXTT3=
EXTT4=
EXTT5=
EXTT6=
EXTT7=
EXTT8=
EXTT9=
EXTT10=
PLAYORDER=
